<svg xmlns="http://www.w3.org/2000/svg" xmlns:xlink="http://www.w3.org/1999/xlink" width="500" zoomAndPan="magnify" viewBox="0 0 375 374.999991" height="500" preserveAspectRatio="xMidYMid meet" version="1.0"><defs><g/><clipPath id="1fd1819e93"><path d="M 145 87 L 240 87 L 240 256 L 145 256 Z M 145 87 " clip-rule="nonzero"/></clipPath><clipPath id="40b7e93c51"><path d="M 281.453125 176.21875 L 154.199219 255.628906 L 94.640625 160.1875 L 221.894531 80.777344 Z M 281.453125 176.21875 " clip-rule="nonzero"/></clipPath><clipPath id="cd53bf0e40"><path d="M 281.453125 176.21875 L 154.199219 255.628906 L 94.640625 160.1875 L 221.894531 80.777344 Z M 281.453125 176.21875 " clip-rule="nonzero"/></clipPath><clipPath id="e28531922d"><path d="M 281.339844 176.289062 L 154.183594 255.640625 L 94.574219 160.121094 L 221.734375 80.769531 Z M 281.339844 176.289062 " clip-rule="nonzero"/></clipPath><clipPath id="a680b3f3ff"><path d="M 281.339844 176.289062 L 154.308594 255.5625 L 94.753906 160.128906 L 221.789062 80.855469 Z M 281.339844 176.289062 " clip-rule="nonzero"/></clipPath></defs><rect x="-37.5" width="450" fill="#ffffff" y="-37.499999" height="449.999989" fill-opacity="1"/><rect x="-37.5" width="450" fill="#000000" y="-37.499999" height="449.999989" fill-opacity="1"/><g fill="#ffffff" fill-opacity="1"><g transform="translate(130.303633, 160.111221)"><g><path d="M 2.179688 -30.046875 L 5.964844 -38.996094 L 13.074219 -38.996094 L 13.074219 -1.492188 L 9.519531 -1.148438 L 9.519531 0 L 23.511719 0 L 23.511719 -1.148438 L 19.957031 -1.492188 L 19.957031 -38.996094 L 27.007812 -38.996094 L 30.851562 -30.046875 L 32 -30.046875 L 32 -40.140625 L 1.03125 -40.140625 L 1.03125 -30.046875 Z M 2.179688 -30.046875 "/></g></g></g><path stroke-linecap="round" transform="matrix(0.750823, 0, 0, 0.685714, 123.44134, 177.310829)" fill="none" stroke-linejoin="miter" d="M 0.499541 0.00243665 L 170.323548 0.00243665 " stroke="#ffffff" stroke-width="1" stroke-opacity="1" stroke-miterlimit="4"/><g clip-path="url(#1fd1819e93)"><g clip-path="url(#40b7e93c51)"><g clip-path="url(#cd53bf0e40)"><g clip-path="url(#e28531922d)"><g clip-path="url(#a680b3f3ff)"><path fill="#ffffff" d="M 170.078125 163.722656 C 167.191406 164.300781 163.59375 165.183594 161.257812 167.074219 C 161.042969 167.246094 161.128906 167.628906 161.441406 167.539062 C 162.742188 167.175781 163.949219 166.445312 165.210938 165.957031 C 166.726562 165.371094 168.277344 164.882812 169.867188 164.519531 C 173.273438 163.730469 176.753906 163.496094 180.242188 163.707031 C 180.417969 163.71875 180.539062 163.433594 180.320312 163.40625 C 176.910156 162.9375 173.457031 163.042969 170.078125 163.722656 Z M 162.480469 165.109375 C 165.535156 164.183594 168.375 163.058594 171.558594 162.578125 C 171.800781 162.539062 171.914062 162.078125 171.601562 162.101562 C 168.503906 162.359375 165.070312 163.027344 162.40625 164.707031 C 162.230469 164.816406 162.179688 165.203125 162.480469 165.109375 Z M 147.621094 234.980469 C 147.773438 225.789062 150.578125 217.03125 155.449219 209.265625 C 155.59375 209.035156 155.230469 208.917969 155.097656 209.105469 C 149.769531 216.628906 147.09375 225.882812 147.226562 235.066406 C 147.230469 235.320312 147.617188 235.191406 147.621094 234.980469 Z M 200.476562 133.773438 C 198.433594 135.363281 198.070312 138.605469 199.933594 140.472656 C 200.097656 140.636719 200.386719 140.40625 200.273438 140.207031 C 199.074219 138.070312 199.164062 135.941406 200.714844 133.992188 C 200.851562 133.816406 200.648438 133.640625 200.476562 133.773438 Z M 192.894531 147.351562 C 193.0625 147.292969 193.226562 146.929688 192.9375 146.949219 C 190.070312 147.144531 187.90625 150.46875 189.410156 153.078125 C 189.511719 153.257812 189.839844 153.054688 189.8125 152.886719 C 189.355469 150.308594 190.253906 148.210938 192.894531 147.351562 Z M 196.136719 140.765625 C 194.050781 142.59375 193.839844 145.757812 195.921875 147.683594 C 196.023438 147.777344 196.230469 147.59375 196.148438 147.476562 C 194.632812 145.417969 194.5625 142.875 196.273438 140.902344 C 196.363281 140.800781 196.242188 140.675781 196.136719 140.765625 Z M 217.71875 123.769531 C 220.867188 120.023438 221.859375 114.882812 220.496094 110.210938 C 220.46875 110.113281 220.304688 110.191406 220.328125 110.28125 C 221.347656 114.960938 220.242188 119.726562 217.421875 123.578125 C 217.257812 123.804688 217.550781 123.964844 217.71875 123.769531 Z M 154.136719 252.855469 C 153.667969 250.53125 153.742188 248.09375 154.367188 245.839844 C 154.761719 244.410156 155.292969 243.386719 156.042969 242.640625 C 155.058594 241.648438 154.265625 240.488281 153.652344 239.234375 C 153.558594 239.042969 153.46875 238.855469 153.382812 238.660156 C 152.328125 236.25 151.890625 233.527344 151.996094 230.875 C 152.222656 225.359375 154.394531 219.933594 156.617188 214.949219 C 158.996094 209.601562 161.886719 204.496094 165.035156 199.566406 C 168.171875 194.664062 171.910156 190.097656 174.804688 185.050781 C 177.445312 180.445312 178.71875 174.539062 176.089844 169.789062 C 176.082031 169.792969 176.074219 169.792969 176.0625 169.792969 C 174.257812 180.757812 167.328125 190.292969 161.210938 198.714844 C 155.074219 207.164062 147.4375 217.679688 146.46875 229.554688 C 145.789062 237.890625 148.636719 246.464844 154.136719 252.855469 Z M 176.871094 182.804688 C 174.671875 187.851562 171.011719 192.203125 167.984375 196.761719 C 164.773438 201.59375 161.734375 206.554688 159.15625 211.753906 C 156.5 217.117188 153.929688 222.980469 153.210938 228.972656 C 152.871094 231.769531 153.113281 234.730469 154.066406 237.378906 C 157.46875 231.070312 161.011719 224.820312 164.644531 218.648438 C 164.761719 218.457031 165.117188 218.503906 164.992188 218.75 C 161.566406 225.242188 158.011719 231.695312 154.335938 238.058594 C 154.65625 238.832031 155.042969 239.570312 155.5 240.261719 C 157.492188 236.046875 159.75 231.941406 161.921875 227.8125 C 164.203125 223.46875 166.261719 218.828125 168.945312 214.71875 C 169.015625 214.617188 169.273438 214.59375 169.207031 214.765625 C 167.386719 219.296875 164.722656 223.613281 162.457031 227.945312 C 160.246094 232.164062 158.105469 236.445312 155.710938 240.574219 C 156.058594 241.074219 156.445312 241.546875 156.871094 241.992188 C 156.898438 241.972656 156.925781 241.957031 156.960938 241.9375 C 168.019531 216.898438 182.933594 193.921875 201.304688 173.640625 C 200.882812 173.351562 200.464844 173.050781 200.050781 172.753906 C 197.765625 175.371094 193.753906 176.015625 190.789062 173.90625 C 188.40625 172.210938 187.480469 169.21875 188.21875 166.574219 C 186.777344 166.210938 185.269531 165.953125 183.703125 165.804688 C 181.867188 167.824219 179.371094 169.203125 176.710938 169.691406 C 179.167969 173.542969 178.6875 178.644531 176.871094 182.804688 Z M 195.171875 170.371094 C 195.535156 170.304688 195.878906 170.207031 196.207031 170.082031 C 195.449219 169.597656 194.683594 169.136719 193.894531 168.722656 C 192.347656 167.90625 190.683594 167.25 188.914062 166.757812 C 188.386719 169.289062 189.226562 171.964844 191.597656 173.515625 C 194.308594 175.28125 197.554688 174.617188 199.652344 172.46875 C 199.59375 172.429688 199.542969 172.390625 199.488281 172.351562 C 199.402344 172.289062 199.316406 172.230469 199.234375 172.167969 C 197.625 173.183594 195.507812 173.617188 193.867188 172.996094 C 193.679688 172.925781 193.84375 172.703125 193.988281 172.699219 C 195.289062 172.6875 196.472656 172.738281 197.726562 172.28125 C 198.085938 172.152344 198.417969 171.992188 198.730469 171.8125 C 198.582031 171.703125 198.425781 171.59375 198.269531 171.488281 C 196.949219 172 195.183594 172.03125 194.28125 171.722656 C 194.144531 171.675781 194.246094 171.5 194.347656 171.484375 C 195.246094 171.347656 196.542969 171.347656 197.652344 171.054688 C 197.3125 170.816406 196.96875 170.582031 196.617188 170.351562 C 196.15625 170.523438 195.65625 170.605469 195.140625 170.585938 C 194.992188 170.582031 195.070312 170.386719 195.171875 170.371094 Z M 183.550781 164.863281 C 183.550781 164.863281 183.558594 164.863281 183.5625 164.867188 C 185.292969 165.019531 186.949219 165.300781 188.535156 165.703125 C 188.746094 165.753906 188.957031 165.8125 189.160156 165.871094 C 190.992188 166.382812 192.71875 167.058594 194.328125 167.902344 C 195.308594 168.417969 196.257812 169.003906 197.183594 169.621094 C 197.304688 169.699219 197.425781 169.78125 197.542969 169.863281 C 197.925781 170.117188 198.304688 170.382812 198.679688 170.648438 C 198.847656 170.761719 199.011719 170.878906 199.171875 170.996094 C 199.300781 171.085938 199.429688 171.179688 199.558594 171.265625 C 199.710938 171.378906 199.863281 171.488281 200.011719 171.597656 C 200.015625 171.597656 200.019531 171.605469 200.023438 171.605469 C 200.101562 171.660156 200.175781 171.714844 200.253906 171.769531 C 200.371094 171.851562 200.488281 171.9375 200.609375 172.023438 C 201.144531 172.40625 201.695312 172.792969 202.238281 173.171875 C 202.246094 173.171875 202.253906 173.175781 202.257812 173.179688 C 202.542969 173.375 202.828125 173.566406 203.117188 173.757812 C 206.707031 176.109375 209.726562 177.214844 212.617188 177.230469 C 217.308594 177.253906 221.445312 174.410156 225.441406 171.65625 C 225.933594 171.320312 226.414062 170.984375 226.898438 170.660156 C 231.050781 167.855469 234.660156 166.414062 237.890625 166.277344 C 236 164.46875 233.667969 163.136719 231.121094 162.414062 C 229.941406 162.398438 228.753906 162.453125 227.640625 162.671875 C 227.46875 162.707031 227.300781 162.742188 227.132812 162.78125 C 226.832031 162.855469 226.539062 162.941406 226.257812 163.042969 C 226.0625 163.113281 225.875 163.191406 225.691406 163.273438 C 224.191406 163.953125 222.988281 165.132812 222.394531 167.128906 C 221.984375 168.5 221.582031 169.773438 220.515625 170.789062 C 219.433594 171.816406 217.96875 172.386719 216.535156 172.703125 C 210.710938 173.984375 204.484375 171.894531 200.449219 167.59375 C 200.269531 167.40625 200.640625 167.128906 200.828125 167.296875 C 203.292969 169.578125 206.390625 171.1875 209.6875 171.878906 C 212.867188 172.546875 217.472656 172.65625 220.011719 170.261719 C 221.386719 168.960938 221.367188 167.070312 222.160156 165.46875 C 222.726562 164.335938 223.65625 163.425781 224.738281 162.78125 C 225.121094 162.550781 225.507812 162.359375 225.910156 162.203125 C 226.175781 160.453125 225.941406 158.703125 225.113281 157.070312 C 225.007812 156.863281 225.425781 156.582031 225.542969 156.792969 C 226.460938 158.402344 226.828125 160.214844 226.523438 161.984375 C 226.824219 161.886719 227.128906 161.804688 227.4375 161.742188 C 227.894531 159.546875 227.226562 157.21875 225.4375 155.726562 C 225.222656 155.546875 225.546875 155.179688 225.75 155.339844 C 227.679688 156.84375 228.578125 159.34375 228.007812 161.636719 C 228.324219 161.585938 228.644531 161.546875 228.964844 161.523438 C 228.964844 161.515625 228.964844 161.507812 228.96875 161.5 C 228.96875 161.496094 228.96875 161.488281 228.972656 161.484375 C 229.300781 158.871094 228.097656 156.097656 225.984375 154.570312 C 223.289062 152.632812 219.304688 152.597656 216.332031 154.492188 C 214.234375 155.820312 212.617188 158.078125 211.890625 160.6875 C 211.886719 160.703125 211.882812 160.714844 211.875 160.730469 C 212.144531 161.980469 213.125 163.042969 214.292969 163.730469 C 214.441406 163.820312 214.59375 163.902344 214.75 163.976562 C 214.875 164.042969 215 164.097656 215.128906 164.148438 C 218.144531 165.394531 222.082031 163 220.054688 159.597656 C 219.9375 159.402344 220.234375 159.183594 220.390625 159.339844 C 223.152344 162.050781 219.472656 165.558594 216.496094 165.339844 C 215.777344 165.289062 215.003906 165.054688 214.261719 164.679688 C 213.828125 165.472656 213.695312 166.371094 213.949219 167.207031 C 214.007812 167.402344 214.089844 167.597656 214.191406 167.789062 C 214.328125 168.039062 214.511719 168.277344 214.734375 168.503906 C 216.207031 169.976562 218.46875 169.480469 219.601562 167.875 C 219.707031 167.71875 219.992188 167.816406 219.882812 168.007812 C 218.789062 169.917969 216.316406 170.59375 214.5 169.238281 C 214.113281 168.949219 213.804688 168.605469 213.578125 168.226562 C 210.035156 170.367188 204.953125 167.925781 202.101562 165.453125 C 199.625 163.3125 197.433594 160.933594 194.609375 159.230469 C 193.523438 158.578125 192.410156 158.03125 191.261719 157.5625 C 190.933594 157.429688 190.605469 157.300781 190.273438 157.179688 C 189.5625 156.917969 188.84375 156.6875 188.113281 156.476562 C 187.8125 156.386719 187.511719 156.304688 187.207031 156.230469 C 187.132812 156.246094 187.058594 156.238281 186.988281 156.214844 C 186.984375 156.21875 186.976562 156.214844 186.976562 156.214844 C 186.902344 156.191406 186.832031 156.171875 186.753906 156.148438 C 184.0625 155.386719 181.59375 155.050781 179.214844 155.128906 C 175.3125 155.25 171.660156 156.652344 169.105469 158.949219 C 179.140625 156.753906 190.367188 159.210938 198.433594 165.269531 C 198.554688 165.359375 198.371094 165.539062 198.257812 165.464844 C 192.730469 161.707031 186.230469 159.53125 179.558594 159.085938 C 175.570312 158.820312 171.679688 159.238281 167.902344 160.191406 C 167.878906 160.214844 167.863281 160.242188 167.839844 160.265625 C 167.789062 160.328125 167.722656 160.378906 167.640625 160.410156 C 166.753906 160.757812 165.910156 161.160156 165.136719 161.613281 C 162.035156 163.417969 159.75 166.457031 159.148438 169.527344 C 163.027344 168.023438 167.984375 166.277344 173.140625 165.375 C 176.738281 164.746094 180.242188 164.574219 183.550781 164.863281 Z M 188.523438 155.585938 C 188.691406 155.628906 188.855469 155.671875 189.019531 155.71875 C 194.773438 154.988281 201.132812 156.863281 205.988281 159.621094 C 205.996094 159.625 206 159.628906 206 159.628906 C 206.140625 159.722656 205.980469 159.929688 205.828125 159.941406 C 205.796875 159.945312 205.761719 159.9375 205.730469 159.921875 C 202.839844 158.359375 199.722656 157.265625 196.480469 156.699219 C 194.617188 156.375 192.808594 156.324219 190.992188 156.363281 C 191.488281 156.554688 191.980469 156.761719 192.464844 156.980469 C 195.433594 156.984375 198.488281 157.855469 200.886719 159.523438 C 201.042969 159.628906 200.816406 159.828125 200.679688 159.757812 C 198.40625 158.621094 196.203125 157.9375 193.855469 157.675781 C 196.03125 158.84375 198.050781 160.328125 199.871094 162.003906 C 203.332031 165.195312 208.480469 170.101562 213.285156 167.601562 C 212.914062 166.542969 213.074219 165.339844 213.722656 164.382812 C 212.34375 163.546875 211.203125 162.246094 211.011719 160.824219 C 210.238281 160.308594 209.445312 159.824219 208.640625 159.386719 C 208.191406 159.136719 207.742188 158.902344 207.28125 158.675781 C 207.105469 158.585938 206.929688 158.5 206.75 158.417969 C 206.484375 158.289062 206.210938 158.160156 205.9375 158.042969 C 205.777344 157.96875 205.617188 157.898438 205.453125 157.832031 C 204.238281 157.308594 202.992188 156.855469 201.726562 156.480469 C 201.722656 156.476562 201.71875 156.472656 201.714844 156.472656 C 198.777344 155.59375 195.761719 155.09375 192.742188 155.015625 C 191.144531 154.96875 189.710938 155.15625 188.589844 155.558594 C 188.578125 155.566406 188.570312 155.570312 188.558594 155.574219 C 188.546875 155.578125 188.535156 155.582031 188.523438 155.585938 Z M 188.664062 154.570312 C 190.109375 154.121094 191.671875 154.0625 192.769531 154.09375 C 195.726562 154.175781 198.691406 154.640625 201.570312 155.472656 C 202.007812 154.207031 202.621094 152.671875 203.53125 151.273438 C 204.402344 149.933594 205.507812 148.820312 206.714844 148.070312 C 206.945312 147.925781 207.183594 147.792969 207.421875 147.675781 C 207.894531 145.132812 208.445312 143.214844 209.199219 141.476562 C 210.449219 138.601562 212.296875 136.347656 214.507812 134.96875 C 215.050781 134.628906 215.613281 134.34375 216.199219 134.113281 C 216.597656 133.953125 217.027344 133.816406 217.472656 133.703125 C 218.429688 130.78125 219.644531 128.410156 221.183594 126.476562 C 222.09375 125.332031 223.214844 124.296875 224.429688 123.464844 C 224.382812 121.085938 224.453125 118.5625 225.164062 116.125 C 225.558594 114.789062 226.160156 113.519531 226.914062 112.441406 C 225.871094 110.3125 225.46875 108.507812 225.667969 106.824219 C 223.324219 106.25 221.222656 104.621094 220.117188 102.488281 C 219.734375 101.75 219.46875 100.957031 219.320312 100.132812 C 218.816406 100.011719 218.367188 99.875 217.949219 99.71875 C 217.550781 99.570312 217.175781 99.402344 216.824219 99.214844 C 215.277344 100.296875 213.914062 101.144531 212.378906 101.71875 C 211.085938 102.207031 209.761719 102.429688 208.527344 102.371094 C 208.476562 102.46875 208.394531 102.546875 208.285156 102.589844 C 206.269531 103.363281 204.75 105.40625 204.589844 107.558594 C 204.53125 108.371094 204.671875 109.207031 204.972656 109.992188 C 205.378906 110.601562 205.964844 111.066406 206.621094 111.246094 C 206.757812 111.28125 206.898438 111.308594 207.046875 111.320312 C 207.242188 111.339844 207.445312 111.328125 207.648438 111.289062 C 207.800781 111.257812 207.957031 111.210938 208.109375 111.144531 C 208.25 111.085938 208.382812 111.015625 208.519531 110.925781 C 210.015625 109.941406 209.855469 107.960938 208.6875 106.800781 C 208.554688 106.667969 208.835938 106.417969 208.976562 106.527344 C 210.601562 107.789062 210.535156 110.1875 208.84375 111.367188 C 208.644531 111.507812 208.4375 111.621094 208.222656 111.703125 C 208.582031 113.121094 209.554688 114.210938 211.136719 114.492188 C 211.359375 114.53125 211.175781 114.867188 211 114.851562 C 209.277344 114.691406 207.859375 113.484375 207.667969 111.867188 C 207.5 111.902344 207.328125 111.921875 207.160156 111.925781 C 207.746094 114.660156 209.257812 116.425781 212.292969 116.777344 C 212.457031 116.800781 212.390625 117.011719 212.257812 117.03125 C 209.300781 117.375 206.332031 114.894531 206.53125 111.882812 C 206.34375 111.847656 206.164062 111.800781 205.992188 111.734375 C 206.019531 111.769531 206.042969 111.804688 206.074219 111.835938 C 206.089844 111.855469 206.101562 111.875 206.117188 111.894531 C 206.121094 111.902344 206.125 111.90625 206.128906 111.910156 C 206.152344 111.957031 206.171875 112.007812 206.179688 112.058594 C 206.183594 112.066406 206.183594 112.070312 206.183594 112.078125 C 206.191406 112.136719 206.191406 112.199219 206.171875 112.257812 C 205.71875 114.050781 206.1875 116.015625 207.367188 117.269531 C 207.871094 117.800781 208.496094 118.21875 209.230469 118.507812 C 211.117188 119.253906 213.339844 118.984375 214.898438 117.828125 C 217.066406 116.210938 217.929688 112.933594 216.863281 110.359375 C 216.753906 110.09375 216.625 109.832031 216.488281 109.5625 C 216.210938 108.996094 215.925781 108.414062 215.792969 107.765625 C 215.574219 106.710938 215.90625 105.382812 216.957031 104.894531 C 217.1875 104.785156 217.460938 104.886719 217.570312 105.113281 C 217.585938 105.148438 217.597656 105.183594 217.601562 105.21875 C 217.714844 105.207031 217.824219 105.199219 217.941406 105.207031 C 219.40625 105.292969 220.152344 106.648438 220.621094 107.863281 C 220.71875 108.117188 220.285156 108.355469 220.152344 108.09375 C 219.792969 107.363281 219.355469 106.554688 218.613281 106.144531 C 218.015625 105.808594 217.246094 105.835938 216.855469 106.332031 C 217.003906 106.269531 217.167969 106.234375 217.332031 106.234375 C 218.398438 106.234375 218.890625 107.359375 219.1875 108.203125 C 219.222656 108.296875 219.046875 108.402344 218.996094 108.308594 C 218.71875 107.808594 218.421875 107.253906 217.902344 106.96875 C 217.460938 106.730469 216.816406 106.777344 216.65625 107.273438 C 216.660156 107.375 216.671875 107.476562 216.695312 107.578125 C 216.804688 108.113281 217.050781 108.621094 217.316406 109.152344 C 217.449219 109.425781 217.59375 109.710938 217.714844 110.003906 C 218.953125 112.996094 217.980469 116.679688 215.449219 118.566406 C 213.714844 119.851562 211.285156 120.191406 209.171875 119.464844 C 208.191406 120.414062 207.511719 121.625 207.25 122.910156 C 207.140625 123.441406 207.101562 123.988281 207.132812 124.539062 C 207.589844 126.097656 208.53125 127.453125 210.128906 128.097656 C 212.316406 128.976562 214.675781 128.011719 216.011719 126.167969 C 216.171875 125.949219 216.609375 126.070312 216.441406 126.347656 C 215.210938 128.386719 212.753906 129.554688 210.390625 129.003906 C 208.5 128.5625 206.980469 127.054688 206.488281 125.230469 C 204.609375 125.824219 203.054688 127.265625 202.394531 129.054688 C 202.210938 129.539062 202.097656 130.058594 202.050781 130.589844 C 202.066406 130.613281 202.074219 130.648438 202.074219 130.6875 C 202.117188 132.605469 202.621094 134.457031 204.140625 135.738281 C 205.8125 137.140625 208.167969 137.351562 210.125 136.464844 C 210.503906 136.296875 210.652344 136.785156 210.3125 136.953125 C 206.625 138.796875 201.804688 136.527344 201.445312 132.542969 C 199.886719 133.1875 198.640625 134.453125 198.074219 135.984375 C 197.769531 136.792969 197.664062 137.699219 197.757812 138.605469 C 197.757812 138.609375 197.757812 138.621094 197.757812 138.628906 C 197.761719 138.699219 197.75 138.765625 197.722656 138.828125 C 198.644531 141.910156 201.730469 143.898438 205.1875 142.5 C 205.4375 142.402344 205.515625 142.71875 205.296875 142.816406 C 201.933594 144.316406 198.003906 142.5 197.046875 139.261719 C 195.757812 139.871094 194.683594 140.890625 194.066406 142.105469 C 193.703125 142.828125 193.492188 143.632812 193.4375 144.460938 C 193.671875 145.667969 194.132812 146.796875 195.070312 147.75 C 196.515625 149.214844 198.3125 149.609375 200.289062 149.773438 C 200.507812 149.792969 200.398438 150.046875 200.25 150.085938 C 197.175781 150.875 194.03125 148.765625 192.925781 145.9375 C 191.15625 146.472656 189.652344 147.722656 188.867188 149.320312 C 188.082031 150.921875 188.011719 152.855469 188.664062 154.570312 Z M 208.191406 101.425781 C 209.40625 101.550781 210.742188 101.351562 212.058594 100.855469 C 213.394531 100.355469 214.609375 99.625 215.960938 98.695312 C 215.164062 98.144531 214.523438 97.484375 214.070312 96.722656 C 213.804688 96.28125 213.605469 95.808594 213.449219 95.320312 C 212.339844 96.046875 211.207031 96.765625 210.015625 97.273438 C 209.859375 97.335938 209.699219 97.167969 209.839844 97.035156 C 210.824219 96.101562 212.046875 95.386719 213.292969 94.777344 C 213.21875 94.476562 213.15625 94.179688 213.105469 93.882812 C 213.101562 93.890625 213.09375 93.894531 213.085938 93.898438 C 211.203125 95.070312 209.339844 96.269531 207.410156 97.359375 C 207.175781 97.488281 207.035156 97.171875 207.234375 97.039062 C 209.082031 95.773438 211 94.613281 212.902344 93.425781 C 212.949219 93.398438 212.988281 93.382812 213.023438 93.375 C 212.984375 93.105469 212.949219 92.832031 212.914062 92.5625 C 209.277344 94.335938 205.828125 96.484375 202.640625 98.964844 C 203.433594 99.199219 204.152344 99.652344 204.851562 100.097656 C 205.328125 100.402344 205.78125 100.691406 206.253906 100.910156 C 206.84375 101.183594 207.496094 101.359375 208.191406 101.425781 Z M 214.140625 94.375 C 214.175781 94.519531 214.210938 94.664062 214.253906 94.800781 C 214.398438 95.316406 214.589844 95.796875 214.863281 96.25 C 215.339844 97.050781 216.066406 97.734375 217.019531 98.269531 C 217.402344 98.496094 217.820312 98.691406 218.273438 98.855469 C 218.5625 98.964844 218.867188 99.0625 219.199219 99.152344 C 219.113281 97.839844 219.324219 96.515625 219.8125 95.324219 C 218.761719 94.808594 217.738281 94.238281 216.710938 93.660156 C 216.507812 93.546875 216.773438 93.207031 216.953125 93.289062 C 218.003906 93.757812 219.058594 94.222656 220.082031 94.746094 C 220.167969 94.570312 220.265625 94.394531 220.363281 94.226562 C 218.53125 93.351562 216.703125 92.382812 215.03125 91.238281 C 214.84375 91.109375 215.089844 90.804688 215.269531 90.878906 C 217.148438 91.644531 218.960938 92.613281 220.703125 93.65625 C 220.828125 93.457031 220.953125 93.257812 221.074219 93.0625 C 221.140625 92.964844 221.199219 92.867188 221.265625 92.769531 C 218.511719 91.484375 215.757812 90.128906 213.042969 88.734375 C 213.4375 89.691406 213.601562 90.734375 213.738281 91.804688 L 213.792969 92.21875 C 213.890625 92.964844 213.984375 93.6875 214.140625 94.375 Z M 221.855469 93.554688 C 221.734375 93.746094 221.609375 93.941406 221.488281 94.132812 C 221.390625 94.292969 221.292969 94.453125 221.203125 94.613281 C 221.09375 94.800781 220.988281 94.988281 220.894531 95.171875 C 220.890625 95.179688 220.882812 95.191406 220.878906 95.203125 C 220.796875 95.371094 220.714844 95.542969 220.644531 95.71875 C 220.152344 96.941406 219.988281 98.324219 220.175781 99.671875 C 220.175781 99.679688 220.179688 99.683594 220.179688 99.6875 C 220.300781 100.527344 220.550781 101.324219 220.9375 102.0625 C 221.910156 103.945312 223.757812 105.390625 225.828125 105.914062 C 226.140625 104.667969 226.785156 103.574219 227.480469 102.53125 C 226.484375 101.195312 225.613281 99.722656 224.785156 98.332031 C 224.648438 98.109375 225.003906 97.8125 225.171875 98.019531 C 226.125 99.210938 227.121094 100.46875 227.984375 101.785156 C 228.1875 101.492188 228.386719 101.199219 228.582031 100.898438 C 226.953125 98.679688 225.511719 96.277344 224.128906 93.910156 C 224.003906 93.699219 224.351562 93.414062 224.503906 93.617188 C 226.074219 95.730469 227.652344 97.914062 229.023438 100.1875 C 229.160156 99.949219 229.285156 99.722656 229.394531 99.496094 C 227.515625 96.363281 225.511719 93.269531 223.425781 90.285156 C 223.253906 91.164062 222.820312 91.988281 222.347656 92.765625 C 222.339844 92.78125 222.328125 92.796875 222.320312 92.8125 C 222.320312 92.816406 222.316406 92.820312 222.3125 92.824219 C 222.164062 93.070312 222.011719 93.3125 221.855469 93.554688 Z M 229.558594 101.085938 C 229.519531 101.144531 229.480469 101.207031 229.445312 101.265625 C 229.351562 101.40625 229.261719 101.546875 229.167969 101.683594 C 229.023438 101.898438 228.875 102.117188 228.726562 102.332031 C 228.660156 102.433594 228.585938 102.535156 228.523438 102.636719 C 228.367188 102.855469 228.222656 103.078125 228.078125 103.300781 C 227.472656 104.226562 226.957031 105.148438 226.707031 106.183594 C 226.679688 106.300781 226.65625 106.417969 226.636719 106.535156 C 226.367188 108.046875 226.65625 109.679688 227.546875 111.632812 C 228.179688 110.886719 228.898438 110.265625 229.667969 109.785156 C 230.167969 109.472656 230.695312 109.21875 231.238281 109.03125 C 231.265625 109.019531 231.296875 109.011719 231.328125 109 C 231.1875 107.59375 231.054688 106.191406 230.894531 104.789062 C 230.882812 104.664062 231.117188 104.570312 231.164062 104.710938 C 231.582031 106.03125 231.859375 107.417969 231.972656 108.808594 C 232.144531 108.761719 232.320312 108.722656 232.5 108.683594 C 232.15625 106.628906 231.792969 104.589844 231.21875 102.574219 C 231.152344 102.335938 231.5625 102.101562 231.652344 102.367188 C 232.347656 104.371094 232.902344 106.445312 233.125 108.5625 C 233.347656 108.527344 233.570312 108.488281 233.789062 108.453125 C 233.894531 108.433594 234 108.417969 234.105469 108.402344 C 233.636719 104.699219 232.5625 101.035156 230.972656 97.664062 C 230.867188 98.292969 230.660156 98.953125 230.339844 99.644531 C 230.339844 99.648438 230.335938 99.65625 230.332031 99.664062 C 230.328125 99.667969 230.328125 99.675781 230.324219 99.683594 C 230.121094 100.132812 229.867188 100.589844 229.558594 101.085938 Z M 234.738281 109.222656 C 234.726562 109.222656 234.714844 109.222656 234.703125 109.226562 C 234.6875 109.230469 234.671875 109.234375 234.660156 109.238281 C 234.417969 109.277344 234.179688 109.320312 233.941406 109.359375 C 233.691406 109.398438 233.445312 109.441406 233.203125 109.484375 C 233.019531 109.519531 232.835938 109.554688 232.652344 109.59375 C 232.4375 109.640625 232.226562 109.6875 232.019531 109.75 C 231.855469 109.792969 231.695312 109.84375 231.539062 109.894531 C 231.5 109.910156 231.460938 109.921875 231.421875 109.941406 C 230.0625 110.445312 228.820312 111.414062 227.832031 112.75 C 227.824219 112.761719 227.816406 112.773438 227.804688 112.785156 C 227.042969 113.816406 226.4375 115.058594 226.050781 116.382812 C 225.425781 118.519531 225.320312 120.753906 225.34375 122.890625 C 226.515625 122.214844 227.734375 121.730469 228.960938 121.449219 C 229.722656 118.953125 230.613281 116.488281 231.457031 114.019531 C 231.503906 113.886719 231.765625 113.859375 231.710938 114.035156 C 231.003906 116.464844 230.332031 118.921875 229.542969 121.332031 C 229.839844 121.28125 230.132812 121.242188 230.429688 121.21875 C 231.511719 117.902344 232.78125 114.640625 233.964844 111.371094 C 234.042969 111.152344 234.484375 111.164062 234.394531 111.425781 C 233.28125 114.671875 232.246094 117.960938 231.042969 121.175781 C 231.386719 121.167969 231.722656 121.171875 232.0625 121.195312 L 236.402344 108.816406 C 235.832031 109.003906 235.257812 109.128906 234.738281 109.222656 Z M 233.40625 122.332031 C 233.054688 122.246094 232.695312 122.183594 232.332031 122.144531 L 232.328125 122.144531 C 231.789062 122.085938 231.242188 122.078125 230.6875 122.121094 C 230.5 122.132812 230.308594 122.148438 230.117188 122.179688 C 229.816406 122.214844 229.511719 122.269531 229.207031 122.339844 C 229.023438 122.375 228.839844 122.421875 228.660156 122.476562 C 227.464844 122.804688 226.277344 123.347656 225.148438 124.089844 C 225.144531 124.09375 225.140625 124.09375 225.140625 124.097656 C 223.925781 124.894531 222.808594 125.914062 221.902344 127.046875 C 220.523438 128.789062 219.410156 130.898438 218.515625 133.488281 C 219.507812 133.328125 220.515625 133.289062 221.5 133.316406 C 222.570312 131.589844 223.78125 129.941406 224.996094 128.332031 C 225.179688 128.082031 225.554688 128.285156 225.355469 128.5625 C 224.226562 130.117188 223.203125 131.730469 222.183594 133.351562 C 222.492188 133.371094 222.800781 133.394531 223.101562 133.425781 C 224.664062 130.398438 227.042969 127.710938 229.527344 125.464844 C 229.804688 125.214844 230.074219 125.570312 229.824219 125.824219 C 227.46875 128.175781 225.652344 130.777344 223.902344 133.515625 C 224.210938 133.550781 224.515625 133.59375 224.8125 133.636719 C 227.675781 129.871094 230.542969 126.097656 233.40625 122.332031 Z M 225.609375 134.691406 C 225.386719 134.65625 225.164062 134.621094 224.941406 134.589844 C 224.9375 134.589844 224.929688 134.589844 224.925781 134.585938 C 224.417969 134.511719 223.890625 134.4375 223.351562 134.378906 C 223.128906 134.355469 222.902344 134.332031 222.675781 134.3125 C 222.328125 134.28125 221.972656 134.257812 221.617188 134.246094 C 221.394531 134.234375 221.171875 134.230469 220.949219 134.230469 C 219.933594 134.230469 218.917969 134.3125 217.933594 134.539062 C 217.441406 134.652344 216.972656 134.796875 216.539062 134.972656 C 213.808594 136.042969 211.503906 138.480469 210.042969 141.839844 C 209.378906 143.375 208.871094 145.074219 208.441406 147.265625 C 208.757812 147.164062 209.078125 147.082031 209.394531 147.03125 C 210.285156 146.875 211.199219 146.902344 212.09375 146.945312 C 213.371094 144.625 215.015625 142.535156 216.867188 140.636719 C 217.058594 140.441406 217.40625 140.617188 217.195312 140.847656 C 215.476562 142.746094 214.023438 144.800781 212.714844 146.976562 C 213.042969 146.996094 213.363281 147.011719 213.679688 147.015625 C 215.523438 143.84375 217.972656 140.710938 220.78125 138.492188 C 220.921875 138.382812 221.082031 138.535156 220.96875 138.671875 C 219.613281 140.324219 218.113281 141.835938 216.808594 143.53125 C 215.941406 144.65625 215.15625 145.824219 214.386719 147.011719 C 214.601562 147.003906 214.8125 146.988281 215.023438 146.964844 C 218.136719 142.542969 221.695312 138.417969 225.609375 134.691406 Z M 215.707031 147.789062 C 215.605469 147.808594 215.507812 147.828125 215.402344 147.839844 C 215.382812 147.84375 215.367188 147.847656 215.347656 147.851562 C 215.324219 147.851562 215.300781 147.859375 215.273438 147.855469 C 214.789062 147.925781 214.289062 147.945312 213.789062 147.941406 C 213.582031 147.933594 213.375 147.929688 213.171875 147.921875 C 212.9375 147.910156 212.703125 147.898438 212.46875 147.882812 C 212.375 147.882812 212.28125 147.875 212.1875 147.871094 C 212 147.859375 211.808594 147.851562 211.617188 147.847656 C 210.910156 147.816406 210.210938 147.824219 209.546875 147.9375 C 209.039062 148.023438 208.527344 148.179688 208.023438 148.410156 C 208.015625 148.414062 208.007812 148.414062 208.003906 148.417969 C 206.605469 149.058594 205.292969 150.246094 204.304688 151.773438 C 203.453125 153.082031 202.871094 154.53125 202.449219 155.738281 C 203.644531 156.113281 204.816406 156.546875 205.957031 157.042969 C 206.933594 155.539062 208.035156 154.058594 209.300781 152.847656 C 209.40625 152.746094 209.652344 152.789062 209.546875 152.964844 C 208.667969 154.460938 207.589844 155.890625 206.519531 157.289062 C 206.769531 157.402344 207.019531 157.519531 207.269531 157.640625 C 207.703125 156.992188 208.15625 156.355469 208.597656 155.714844 C 209.613281 154.253906 210.558594 152.667969 211.761719 151.355469 C 211.867188 151.230469 212.097656 151.292969 212.011719 151.476562 C 211.28125 152.988281 210.199219 154.363281 209.265625 155.757812 C 208.785156 156.472656 208.308594 157.195312 207.816406 157.910156 C 208.109375 158.058594 208.402344 158.207031 208.683594 158.363281 C 210.753906 154.683594 213.109375 151.132812 215.707031 147.789062 Z M 145.550781 229.484375 C 146.542969 217.34375 154.261719 206.714844 160.46875 198.175781 C 166.589844 189.746094 173.527344 180.195312 175.210938 169.304688 C 175.210938 169.300781 175.210938 169.296875 175.214844 169.289062 C 175.222656 169.230469 175.246094 169.175781 175.277344 169.125 C 175.292969 169.105469 175.308594 169.085938 175.328125 169.066406 C 175.335938 169.054688 175.347656 169.042969 175.359375 169.035156 C 175.378906 169.015625 175.398438 169 175.421875 168.984375 C 175.464844 168.960938 175.511719 168.941406 175.558594 168.929688 C 175.558594 168.929688 175.5625 168.925781 175.566406 168.929688 C 175.585938 168.917969 175.601562 168.921875 175.625 168.917969 C 175.632812 168.914062 175.644531 168.914062 175.65625 168.914062 C 175.808594 168.898438 175.964844 168.882812 176.117188 168.859375 C 178.496094 168.523438 180.765625 167.402344 182.511719 165.714844 C 179.566406 165.535156 176.472656 165.726562 173.300781 166.28125 C 167.894531 167.226562 162.691406 169.117188 158.761719 170.660156 C 158.753906 170.664062 158.746094 170.667969 158.738281 170.667969 C 158.71875 170.679688 158.691406 170.6875 158.664062 170.691406 C 158.640625 170.699219 158.621094 170.699219 158.597656 170.699219 C 158.574219 170.703125 158.546875 170.703125 158.523438 170.699219 C 158.484375 170.699219 158.449219 170.6875 158.417969 170.675781 C 158.386719 170.667969 158.355469 170.652344 158.328125 170.632812 C 158.324219 170.632812 158.320312 170.632812 158.320312 170.628906 C 158.289062 170.609375 158.265625 170.589844 158.246094 170.566406 C 158.222656 170.546875 158.203125 170.519531 158.183594 170.492188 C 158.183594 170.492188 158.183594 170.488281 158.179688 170.488281 C 158.164062 170.464844 158.15625 170.4375 158.144531 170.410156 C 158.132812 170.386719 158.128906 170.359375 158.121094 170.335938 C 158.117188 170.3125 158.113281 170.292969 158.113281 170.269531 C 158.113281 170.246094 158.109375 170.230469 158.113281 170.210938 C 158.113281 170.207031 158.113281 170.199219 158.113281 170.195312 C 158.117188 170.1875 158.117188 170.179688 158.117188 170.171875 C 158.464844 166.957031 160.558594 163.683594 163.570312 161.53125 C 163.808594 161.359375 164.050781 161.195312 164.300781 161.039062 C 164.425781 160.964844 164.546875 160.890625 164.675781 160.8125 C 165.460938 160.359375 166.308594 159.945312 167.203125 159.59375 C 167.265625 159.515625 167.328125 159.445312 167.394531 159.371094 C 168.269531 158.371094 169.316406 157.496094 170.488281 156.761719 C 172.960938 155.21875 175.996094 154.304688 179.183594 154.210938 C 181.652344 154.128906 184.203125 154.476562 186.980469 155.257812 C 186.988281 155.261719 187 155.261719 187.007812 155.261719 C 187.023438 155.265625 187.035156 155.269531 187.050781 155.273438 C 187.285156 155.125 187.53125 154.996094 187.796875 154.886719 C 187.0625 152.9375 187.144531 150.738281 188.042969 148.917969 C 188.640625 147.6875 189.617188 146.636719 190.804688 145.898438 C 191.335938 145.566406 191.90625 145.296875 192.503906 145.101562 C 192.496094 144.796875 192.503906 144.496094 192.53125 144.199219 C 192.59375 143.527344 192.746094 142.875 192.992188 142.265625 C 193.066406 142.070312 193.152344 141.878906 193.246094 141.695312 C 193.824219 140.546875 194.753906 139.554688 195.886719 138.851562 C 196.183594 138.664062 196.492188 138.5 196.8125 138.359375 C 196.789062 137.867188 196.8125 137.378906 196.890625 136.902344 C 196.898438 136.832031 196.910156 136.765625 196.921875 136.699219 C 196.925781 136.667969 196.933594 136.636719 196.941406 136.605469 C 196.941406 136.597656 196.941406 136.589844 196.945312 136.585938 C 197.007812 136.273438 197.097656 135.960938 197.207031 135.664062 C 197.730469 134.257812 198.746094 133.042969 200.042969 132.234375 C 200.386719 132.019531 200.746094 131.839844 201.121094 131.683594 C 201.050781 130.667969 201.1875 129.652344 201.527344 128.734375 C 202.078125 127.253906 203.152344 125.984375 204.511719 125.136719 C 205.039062 124.808594 205.605469 124.550781 206.203125 124.359375 C 206.191406 123.808594 206.238281 123.261719 206.347656 122.726562 C 206.621094 121.382812 207.292969 120.109375 208.261719 119.078125 C 207.667969 118.765625 207.140625 118.371094 206.695312 117.898438 C 205.355469 116.476562 204.792969 114.285156 205.230469 112.257812 C 204.117188 110.90625 203.546875 109.183594 203.671875 107.488281 C 203.832031 105.367188 205.066406 103.398438 206.859375 102.277344 C 206.925781 102.234375 206.996094 102.203125 207.0625 102.164062 C 206.644531 102.058594 206.242188 101.921875 205.863281 101.742188 C 205.335938 101.5 204.839844 101.183594 204.355469 100.875 C 203.414062 100.273438 202.523438 99.707031 201.527344 99.726562 C 201.332031 99.730469 201.15625 99.609375 201.085938 99.421875 C 201.019531 99.238281 201.078125 99.03125 201.230469 98.90625 C 203.101562 97.394531 205.070312 95.996094 207.113281 94.71875 C 208.945312 93.578125 210.839844 92.539062 212.78125 91.601562 C 212.59375 90.214844 212.316406 88.898438 211.496094 87.890625 C 211.355469 87.71875 211.355469 87.476562 211.496094 87.308594 C 211.53125 87.269531 211.566406 87.234375 211.609375 87.207031 C 211.746094 87.125 211.917969 87.113281 212.066406 87.191406 C 215.242188 88.851562 218.5 90.464844 221.75 91.980469 C 222.367188 90.90625 222.71875 89.957031 222.539062 88.949219 C 222.507812 88.765625 222.589844 88.578125 222.75 88.480469 C 222.769531 88.464844 222.792969 88.457031 222.816406 88.445312 C 223.015625 88.363281 223.242188 88.429688 223.371094 88.601562 C 225.628906 91.777344 227.800781 95.082031 229.832031 98.4375 C 230.167969 97.417969 230.214844 96.496094 229.972656 95.6875 C 229.910156 95.484375 229.996094 95.273438 230.171875 95.164062 C 230.191406 95.152344 230.214844 95.140625 230.238281 95.128906 C 230.453125 95.039062 230.707031 95.128906 230.820312 95.332031 C 232.984375 99.285156 234.433594 103.734375 235.011719 108.230469 C 235.671875 108.097656 236.34375 107.90625 236.964844 107.582031 C 237.132812 107.492188 237.335938 107.519531 237.480469 107.640625 C 237.625 107.761719 237.675781 107.960938 237.613281 108.140625 L 233 121.308594 C 233.453125 121.386719 233.898438 121.496094 234.324219 121.636719 C 234.464844 121.683594 234.574219 121.792969 234.621094 121.9375 C 234.664062 122.078125 234.636719 122.234375 234.546875 122.351562 C 231.644531 126.164062 228.746094 129.976562 225.84375 133.796875 C 226.125 133.839844 226.402344 133.886719 226.675781 133.933594 C 226.851562 133.960938 226.992188 134.085938 227.042969 134.253906 C 227.09375 134.417969 227.042969 134.601562 226.914062 134.722656 C 223.042969 138.324219 219.515625 142.320312 216.410156 146.605469 C 216.570312 146.535156 216.722656 146.457031 216.867188 146.367188 C 217.058594 146.246094 217.304688 146.285156 217.453125 146.453125 C 217.605469 146.621094 217.609375 146.871094 217.46875 147.046875 C 214.488281 150.730469 211.804688 154.691406 209.488281 158.808594 C 210.019531 159.105469 210.542969 159.421875 211.054688 159.753906 C 211.101562 159.777344 211.144531 159.808594 211.191406 159.839844 C 211.347656 159.355469 211.535156 158.886719 211.746094 158.433594 C 212.675781 156.464844 214.085938 154.828125 215.839844 153.714844 C 215.859375 153.703125 215.875 153.691406 215.894531 153.679688 C 219.1875 151.628906 223.546875 151.683594 226.523438 153.824219 C 228.792969 155.460938 230.125 158.371094 229.921875 161.1875 C 230.382812 161.273438 230.835938 161.378906 231.28125 161.503906 C 232.0625 161.71875 232.820312 161.992188 233.558594 162.308594 C 235.738281 163.261719 237.710938 164.65625 239.308594 166.414062 C 239.316406 166.417969 239.324219 166.421875 239.328125 166.429688 C 239.363281 166.46875 239.386719 166.511719 239.40625 166.558594 C 239.414062 166.574219 239.421875 166.59375 239.425781 166.609375 C 239.429688 166.625 239.433594 166.636719 239.4375 166.652344 C 239.441406 166.675781 239.445312 166.695312 239.445312 166.722656 C 239.445312 166.742188 239.445312 166.761719 239.445312 166.78125 C 239.441406 166.792969 239.441406 166.808594 239.4375 166.824219 C 239.4375 166.84375 239.429688 166.859375 239.425781 166.878906 C 239.417969 166.902344 239.40625 166.929688 239.394531 166.953125 C 239.375 166.992188 239.34375 167.035156 239.308594 167.066406 C 239.304688 167.074219 239.300781 167.078125 239.296875 167.082031 C 239.289062 167.085938 239.285156 167.085938 239.28125 167.089844 C 239.246094 167.125 239.210938 167.148438 239.167969 167.160156 C 239.152344 167.167969 239.136719 167.175781 239.121094 167.175781 C 239.109375 167.183594 239.089844 167.1875 239.078125 167.1875 C 239.054688 167.199219 239.027344 167.199219 239.003906 167.199219 C 238.988281 167.199219 238.976562 167.203125 238.960938 167.199219 C 235.699219 167.027344 231.816406 168.445312 227.414062 171.421875 C 226.933594 171.746094 226.453125 172.078125 225.964844 172.414062 C 221.851562 175.25 217.59375 178.175781 212.613281 178.148438 C 209.535156 178.132812 206.355469 176.980469 202.609375 174.527344 C 202.429688 174.40625 202.25 174.285156 202.070312 174.167969 C 183.691406 194.441406 168.777344 217.414062 157.734375 242.457031 C 157.726562 242.480469 157.714844 242.503906 157.699219 242.519531 C 157.691406 242.539062 157.675781 242.558594 157.65625 242.574219 C 157.648438 242.589844 157.628906 242.605469 157.613281 242.621094 C 157.597656 242.632812 157.582031 242.644531 157.566406 242.65625 C 157.542969 242.671875 157.523438 242.679688 157.5 242.691406 C 157.238281 242.828125 156.996094 243 156.785156 243.199219 C 156.761719 243.21875 156.734375 243.25 156.710938 243.269531 C 156.070312 243.90625 155.605469 244.800781 155.253906 246.082031 C 154.519531 248.757812 154.601562 251.703125 155.484375 254.375 C 155.488281 254.382812 155.496094 254.394531 155.496094 254.402344 C 155.5 254.417969 155.507812 254.433594 155.503906 254.449219 C 155.511719 254.472656 155.519531 254.496094 155.515625 254.523438 C 155.523438 254.550781 155.519531 254.578125 155.515625 254.601562 C 155.515625 254.625 155.507812 254.652344 155.503906 254.675781 C 155.492188 254.703125 155.484375 254.726562 155.46875 254.757812 C 155.460938 254.769531 155.453125 254.789062 155.441406 254.800781 C 155.433594 254.820312 155.417969 254.839844 155.40625 254.855469 C 155.398438 254.863281 155.390625 254.871094 155.378906 254.878906 C 155.375 254.882812 155.375 254.886719 155.367188 254.886719 C 155.324219 254.929688 155.277344 254.960938 155.226562 254.976562 C 155.21875 254.980469 155.210938 254.984375 155.207031 254.988281 C 155.191406 254.992188 155.171875 254.996094 155.15625 254.996094 C 155.132812 255.003906 155.109375 255.007812 155.082031 255.007812 C 155.082031 255.011719 155.082031 255.007812 155.078125 255.011719 C 155.054688 255.011719 155.03125 255.011719 155.007812 255.003906 C 154.984375 255.003906 154.964844 255.003906 154.941406 254.996094 C 154.910156 254.988281 154.878906 254.976562 154.847656 254.960938 C 154.832031 254.953125 154.820312 254.941406 154.804688 254.933594 C 154.785156 254.921875 154.769531 254.910156 154.753906 254.894531 C 154.746094 254.890625 154.738281 254.878906 154.726562 254.871094 C 154.722656 254.867188 154.714844 254.859375 154.714844 254.855469 C 148.226562 248.164062 144.800781 238.679688 145.550781 229.484375 Z M 224.042969 165.636719 C 227.222656 163.628906 231.039062 163.628906 234.078125 165.898438 C 234.28125 166.054688 234.585938 165.703125 234.382812 165.527344 C 231.496094 162.921875 226.804688 162.722656 223.773438 165.1875 C 223.511719 165.398438 223.71875 165.839844 224.042969 165.636719 Z M 205.238281 127.199219 C 204.441406 128.144531 203.6875 129.011719 203.480469 130.285156 C 203.226562 131.828125 203.859375 133.074219 204.683594 134.324219 C 204.785156 134.488281 204.542969 134.714844 204.394531 134.601562 C 202.019531 132.824219 202.277344 128.273438 205.132812 127.046875 C 205.246094 127 205.3125 127.113281 205.238281 127.199219 " fill-opacity="1" fill-rule="nonzero"/></g></g></g></g></g><g fill="#ffffff" fill-opacity="1"><g transform="translate(202.250967, 229.053851)"><g><path d="M 1.03125 -38.996094 L 4.585938 -38.824219 L 4.585938 -1.320312 L 1.03125 -1.148438 L 1.03125 0 L 9.289062 0 L 9.289062 -1.148438 L 5.734375 -1.320312 L 5.734375 -37.617188 L 21.101562 0 L 22.480469 0 L 37.847656 -37.503906 L 37.847656 -1.492188 L 34.292969 -1.148438 L 34.292969 0 L 48.285156 0 L 48.285156 -1.148438 L 44.730469 -1.492188 L 44.730469 -38.652344 L 48.285156 -38.996094 L 48.285156 -40.140625 L 37.617188 -40.140625 L 25.117188 -9.976562 L 24.886719 -9.519531 L 24.660156 -10.09375 L 12.042969 -40.140625 L 1.03125 -40.140625 Z M 1.03125 -38.996094 "/></g></g></g><g fill="#ffffff" fill-opacity="1"><g transform="translate(96.955724, 299.978359)"><g><path d="M 1.328125 -19.636719 L 3.355469 -23.761719 L 6.011719 -23.761719 L 6.011719 -0.804688 L 4.753906 -0.699219 L 4.753906 0 L 10.902344 0 L 10.902344 -0.699219 L 9.644531 -0.804688 L 9.644531 -23.761719 L 12.300781 -23.761719 L 14.394531 -19.636719 L 15.09375 -19.636719 L 15.09375 -24.460938 L 0.628906 -24.460938 L 0.628906 -19.636719 Z M 1.328125 -19.636719 "/></g></g></g><g fill="#ffffff" fill-opacity="1"><g transform="translate(112.256577, 299.978359)"><g><path d="M 7.898438 -24.460938 L 7.199219 -24.460938 L 1.816406 -0.734375 L 0.628906 -0.699219 L 0.628906 0 L 3.773438 0 L 3.773438 -0.699219 L 2.585938 -0.769531 L 4.296875 -8.316406 L 10.9375 -8.316406 L 12.613281 -0.804688 L 11.320312 -0.699219 L 11.320312 0 L 17.542969 0 L 17.542969 -0.699219 L 16.316406 -0.804688 L 10.972656 -24.460938 Z M 7.617188 -22.921875 L 7.6875 -22.574219 L 10.761719 -9.015625 L 4.472656 -9.015625 L 7.546875 -22.574219 Z M 7.617188 -22.921875 "/></g></g></g><g fill="#ffffff" fill-opacity="1"><g transform="translate(130.072647, 299.978359)"><g><path d="M 13.835938 -4.890625 L 11.84375 -0.699219 L 5.449219 -0.699219 L 5.449219 -23.65625 L 6.777344 -23.761719 L 6.777344 -24.460938 L 0.628906 -24.460938 L 0.628906 -23.761719 L 1.816406 -23.65625 L 1.816406 -0.804688 L 0.628906 -0.699219 L 0.628906 0 L 14.605469 0 L 14.605469 -4.890625 Z M 13.835938 -4.890625 "/></g></g></g><g fill="#ffffff" fill-opacity="1"><g transform="translate(144.814559, 299.978359)"><g><path d="M 3.632812 -24.460938 L 0.628906 -24.460938 L 0.628906 -23.761719 L 1.816406 -23.65625 L 1.816406 -0.804688 L 0.628906 -0.699219 L 0.628906 0 L 14.605469 0 L 14.605469 -4.890625 L 13.835938 -4.890625 L 11.84375 -0.699219 L 5.449219 -0.699219 L 5.449219 -11.878906 L 11.113281 -11.878906 L 11.179688 -10.132812 L 11.878906 -10.132812 L 11.878906 -14.328125 L 11.179688 -14.328125 L 11.113281 -12.578125 L 5.449219 -12.578125 L 5.449219 -23.761719 L 11.878906 -23.761719 L 13.835938 -19.636719 L 14.605469 -19.636719 L 14.605469 -24.460938 Z M 3.632812 -24.460938 "/></g></g></g><g fill="#ffffff" fill-opacity="1"><g transform="translate(160.185277, 299.978359)"><g><path d="M 11.25 -23.761719 L 13.347656 -19.636719 L 14.046875 -19.636719 L 14.046875 -24.460938 L 7.269531 -24.460938 C 3.632812 -24.460938 1.257812 -22.363281 1.257812 -18.449219 C 1.257812 -15.375 2.726562 -13.558594 5.449219 -12.089844 L 8.597656 -10.203125 C 10.832031 -9.085938 12.089844 -7.546875 12.089844 -4.960938 C 12.089844 -2.375 10.484375 -0.699219 7.617188 -0.699219 L 4.890625 -0.699219 L 2.796875 -4.890625 L 2.097656 -4.890625 L 2.097656 0 L 9.785156 0 C 13.417969 0 15.792969 -2.167969 15.792969 -6.078125 C 15.792969 -9.433594 14.257812 -11.042969 11.601562 -12.441406 L 8.457031 -14.257812 C 6.21875 -15.375 4.890625 -16.914062 4.890625 -19.496094 C 4.890625 -22.082031 6.570312 -23.761719 9.433594 -23.761719 Z M 11.25 -23.761719 "/></g></g></g><g fill="#ffffff" fill-opacity="1"><g transform="translate(176.464268, 299.978359)"><g/></g></g><g fill="#ffffff" fill-opacity="1"><g transform="translate(183.590652, 299.978359)"><g><path d="M 0.628906 -23.761719 L 1.816406 -23.726562 L 1.816406 -0.769531 L 0.628906 -0.699219 L 0.628906 0 L 3.773438 0 L 3.773438 -0.699219 L 2.515625 -0.769531 L 2.515625 -22.503906 L 9.644531 0 L 10.550781 0 L 17.472656 -22.433594 L 17.472656 -0.804688 L 16.214844 -0.699219 L 16.214844 0 L 22.363281 0 L 22.363281 -0.699219 L 21.105469 -0.804688 L 21.105469 -23.65625 L 22.363281 -23.761719 L 22.363281 -24.460938 L 17.402344 -24.460938 L 11.742188 -6.777344 L 11.601562 -6.289062 L 11.460938 -6.707031 L 5.660156 -24.460938 L 0.628906 -24.460938 Z M 0.628906 -23.761719 "/></g></g></g><g fill="#ffffff" fill-opacity="1"><g transform="translate(206.087835, 299.978359)"><g><path d="M 7.898438 -24.460938 L 7.199219 -24.460938 L 1.816406 -0.734375 L 0.628906 -0.699219 L 0.628906 0 L 3.773438 0 L 3.773438 -0.699219 L 2.585938 -0.769531 L 4.296875 -8.316406 L 10.9375 -8.316406 L 12.613281 -0.804688 L 11.320312 -0.699219 L 11.320312 0 L 17.542969 0 L 17.542969 -0.699219 L 16.316406 -0.804688 L 10.972656 -24.460938 Z M 7.617188 -22.921875 L 7.6875 -22.574219 L 10.761719 -9.015625 L 4.472656 -9.015625 L 7.546875 -22.574219 Z M 7.617188 -22.921875 "/></g></g></g><g fill="#ffffff" fill-opacity="1"><g transform="translate(223.903905, 299.978359)"><g><path d="M 0.628906 -23.761719 L 1.886719 -23.65625 L 1.886719 -0.804688 L 0.628906 -0.699219 L 0.628906 0 L 6.777344 0 L 6.777344 -0.699219 L 5.449219 -0.804688 L 5.449219 -9.574219 L 8.980469 -9.574219 L 12.472656 -0.804688 L 11.25 -0.699219 L 11.25 0 L 17.542969 0 L 17.542969 -0.699219 L 16.25 -0.804688 L 12.542969 -10.238281 C 14.851562 -11.25 16.214844 -13.453125 16.214844 -17.050781 C 16.214844 -22.292969 13.347656 -24.460938 8.945312 -24.460938 L 0.628906 -24.460938 Z M 5.449219 -23.761719 L 7.40625 -23.761719 C 10.414062 -23.761719 12.507812 -22.152344 12.507812 -17.050781 C 12.507812 -11.949219 10.34375 -10.273438 7.40625 -10.273438 L 5.449219 -10.273438 Z M 5.449219 -23.761719 "/></g></g></g><g fill="#ffffff" fill-opacity="1"><g transform="translate(241.580242, 299.978359)"><g><path d="M 5.449219 -23.65625 L 6.777344 -23.761719 L 6.777344 -24.460938 L 0.628906 -24.460938 L 0.628906 -23.761719 L 1.816406 -23.65625 L 1.816406 -0.804688 L 0.628906 -0.699219 L 0.628906 0 L 6.777344 0 L 6.777344 -0.699219 L 5.449219 -0.804688 L 5.449219 -11.878906 L 8.457031 -11.878906 L 12.542969 -0.804688 L 11.320312 -0.699219 L 11.320312 0 L 17.609375 0 L 17.609375 -0.699219 L 16.386719 -0.804688 L 11.25 -15.304688 L 15.828125 -23.691406 L 17.191406 -23.761719 L 17.191406 -24.460938 L 13.835938 -24.460938 L 13.835938 -23.761719 L 15.058594 -23.691406 L 8.527344 -12.578125 L 5.449219 -12.578125 Z M 5.449219 -23.65625 "/></g></g></g><g fill="#ffffff" fill-opacity="1"><g transform="translate(259.466178, 299.978359)"><g><path d="M 9.292969 -24.808594 C 4.332031 -24.808594 1.257812 -20.964844 1.257812 -12.230469 C 1.257812 -3.496094 4.332031 0.347656 9.292969 0.347656 C 14.257812 0.347656 17.402344 -3.496094 17.402344 -12.230469 C 17.402344 -21.035156 14.257812 -24.808594 9.292969 -24.808594 Z M 9.292969 -24.109375 C 12.089844 -24.109375 13.765625 -21.523438 13.765625 -12.230469 C 13.765625 -2.933594 12.089844 -0.347656 9.292969 -0.347656 C 6.5 -0.347656 4.890625 -2.933594 4.890625 -12.230469 C 4.890625 -21.523438 6.5 -24.109375 9.292969 -24.109375 Z M 9.292969 -24.109375 "/></g></g></g><g fill="#ffffff" fill-opacity="1"><g transform="translate(131.074282, 317.075487)"><g><path d="M 3.328125 -6.863281 L 0.429688 -6.863281 L 0.429688 -6.5625 L 1.519531 -6.523438 L 1.519531 -0.402344 L 0.558594 -0.285156 L 0.558594 0 L 3.351562 0 C 5.457031 0 6.8125 -1.402344 6.8125 -3.546875 C 6.8125 -5.5625 5.445312 -6.863281 3.328125 -6.863281 Z M 1.988281 -0.402344 L 1.988281 -6.460938 L 3.273438 -6.460938 C 5.109375 -6.460938 6.328125 -5.304688 6.328125 -3.546875 C 6.328125 -1.652344 5.160156 -0.402344 3.390625 -0.402344 Z M 1.988281 -0.402344 "/></g></g></g><g fill="#ffffff" fill-opacity="1"><g transform="translate(138.351995, 317.075487)"><g><path d="M 5.160156 -0.402344 L 1.921875 -0.402344 L 1.921875 -3.222656 L 4.394531 -3.222656 L 4.535156 -2.25 L 4.808594 -2.25 L 4.808594 -4.601562 L 4.535156 -4.601562 L 4.394531 -3.613281 L 1.921875 -3.613281 L 1.921875 -6.460938 L 4.886719 -6.460938 L 5.03125 -5.394531 L 5.316406 -5.394531 L 5.316406 -6.863281 L 0.429688 -6.863281 L 0.429688 -6.5625 L 1.457031 -6.539062 L 1.457031 -0.402344 L 0.492188 -0.285156 L 0.492188 0 L 5.589844 0 L 5.589844 -1.597656 L 5.289062 -1.597656 Z M 5.160156 -0.402344 "/></g></g></g><g fill="#ffffff" fill-opacity="1"><g transform="translate(144.343107, 317.075487)"><g><path d="M 2.484375 -3.925781 C 1.519531 -4.40625 1.195312 -4.742188 1.195312 -5.316406 C 1.195312 -6.082031 1.84375 -6.589844 2.847656 -6.589844 C 3.390625 -6.589844 3.914062 -6.5 4.394531 -6.355469 L 4.535156 -5.199219 L 4.835938 -5.199219 L 4.835938 -6.695312 C 4.25 -6.890625 3.613281 -6.992188 2.988281 -6.992188 C 1.652344 -6.992188 0.765625 -6.328125 0.765625 -5.238281 C 0.765625 -4.433594 1.15625 -4.082031 2.339844 -3.484375 L 3.507812 -2.898438 C 4.378906 -2.457031 4.652344 -2.105469 4.652344 -1.585938 C 4.652344 -0.792969 3.988281 -0.273438 2.976562 -0.273438 C 2.378906 -0.273438 1.597656 -0.46875 0.988281 -0.804688 L 0.988281 -2.015625 L 0.6875 -2.015625 L 0.519531 -0.519531 C 1.222656 -0.117188 2.183594 0.128906 2.898438 0.128906 C 4.261719 0.128906 5.09375 -0.558594 5.09375 -1.636719 C 5.09375 -2.417969 4.691406 -2.820312 3.652344 -3.339844 Z M 2.484375 -3.925781 "/></g></g></g><g fill="#ffffff" fill-opacity="1"><g transform="translate(149.853361, 317.075487)"><g><path d="M 5.160156 -0.402344 L 1.921875 -0.402344 L 1.921875 -3.222656 L 4.394531 -3.222656 L 4.535156 -2.25 L 4.808594 -2.25 L 4.808594 -4.601562 L 4.535156 -4.601562 L 4.394531 -3.613281 L 1.921875 -3.613281 L 1.921875 -6.460938 L 4.886719 -6.460938 L 5.03125 -5.394531 L 5.316406 -5.394531 L 5.316406 -6.863281 L 0.429688 -6.863281 L 0.429688 -6.5625 L 1.457031 -6.539062 L 1.457031 -0.402344 L 0.492188 -0.285156 L 0.492188 0 L 5.589844 0 L 5.589844 -1.597656 L 5.289062 -1.597656 Z M 5.160156 -0.402344 "/></g></g></g><g fill="#ffffff" fill-opacity="1"><g transform="translate(155.844473, 317.075487)"><g><path d="M 7.371094 -6.863281 L 4.925781 -6.863281 L 4.925781 -6.5625 L 5.980469 -6.539062 L 5.980469 -0.78125 L 1.832031 -6.863281 L 0.429688 -6.863281 L 0.429688 -6.5625 L 1.402344 -6.511719 L 1.402344 -0.429688 L 0.453125 -0.285156 L 0.453125 0 L 2.886719 0 L 2.886719 -0.285156 L 1.832031 -0.324219 L 1.832031 -6.070312 L 5.964844 0 L 6.40625 0 L 6.40625 -6.433594 L 7.371094 -6.5625 Z M 7.371094 -6.863281 "/></g></g></g><g fill="#ffffff" fill-opacity="1"><g transform="translate(163.525066, 317.075487)"><g><path d="M 4.71875 -6.863281 L 4.71875 -6.5625 L 5.886719 -6.539062 L 3.640625 -0.492188 L 1.363281 -6.539062 L 2.535156 -6.5625 L 2.535156 -6.863281 L 0.0664062 -6.863281 L 0.0664062 -6.5625 L 0.859375 -6.460938 L 3.351562 0 L 3.820312 0 L 6.328125 -6.445312 L 7.148438 -6.5625 L 7.148438 -6.863281 Z M 4.71875 -6.863281 "/></g></g></g><g fill="#ffffff" fill-opacity="1"><g transform="translate(170.633832, 317.075487)"><g><path d="M 3.820312 0.128906 C 5.769531 0.128906 7.042969 -1.324219 7.042969 -3.546875 C 7.042969 -5.640625 5.769531 -6.992188 3.820312 -6.992188 C 1.859375 -6.992188 0.570312 -5.535156 0.570312 -3.289062 C 0.570312 -1.222656 1.859375 0.128906 3.820312 0.128906 Z M 3.847656 -0.273438 C 2.171875 -0.273438 1.066406 -1.480469 1.066406 -3.300781 C 1.066406 -5.277344 2.132812 -6.589844 3.769531 -6.589844 C 5.445312 -6.589844 6.5625 -5.382812 6.5625 -3.546875 C 6.5625 -1.574219 5.484375 -0.273438 3.847656 -0.273438 Z M 3.847656 -0.273438 "/></g></g></g><g fill="#ffffff" fill-opacity="1"><g transform="translate(178.145476, 317.075487)"><g><path d="M 5.210938 -0.402344 L 1.988281 -0.402344 L 1.988281 -6.433594 L 2.9375 -6.5625 L 2.9375 -6.863281 L 0.429688 -6.863281 L 0.429688 -6.5625 L 1.519531 -6.539062 L 1.519531 -0.402344 L 0.609375 -0.285156 L 0.609375 0 L 5.640625 0 L 5.640625 -1.613281 L 5.34375 -1.613281 Z M 5.210938 -0.402344 "/></g></g></g><g fill="#ffffff" fill-opacity="1"><g transform="translate(184.084599, 317.075487)"><g><path d="M 4.71875 -6.863281 L 4.71875 -6.5625 L 5.886719 -6.539062 L 3.640625 -0.492188 L 1.363281 -6.539062 L 2.535156 -6.5625 L 2.535156 -6.863281 L 0.0664062 -6.863281 L 0.0664062 -6.5625 L 0.859375 -6.460938 L 3.351562 0 L 3.820312 0 L 6.328125 -6.445312 L 7.148438 -6.5625 L 7.148438 -6.863281 Z M 4.71875 -6.863281 "/></g></g></g><g fill="#ffffff" fill-opacity="1"><g transform="translate(191.193365, 317.075487)"><g><path d="M 5.160156 -0.402344 L 1.921875 -0.402344 L 1.921875 -3.222656 L 4.394531 -3.222656 L 4.535156 -2.25 L 4.808594 -2.25 L 4.808594 -4.601562 L 4.535156 -4.601562 L 4.394531 -3.613281 L 1.921875 -3.613281 L 1.921875 -6.460938 L 4.886719 -6.460938 L 5.03125 -5.394531 L 5.316406 -5.394531 L 5.316406 -6.863281 L 0.429688 -6.863281 L 0.429688 -6.5625 L 1.457031 -6.539062 L 1.457031 -0.402344 L 0.492188 -0.285156 L 0.492188 0 L 5.589844 0 L 5.589844 -1.597656 L 5.289062 -1.597656 Z M 5.160156 -0.402344 "/></g></g></g><g fill="#ffffff" fill-opacity="1"><g transform="translate(197.184478, 317.075487)"><g><path d="M 3.328125 -6.863281 L 0.429688 -6.863281 L 0.429688 -6.5625 L 1.519531 -6.523438 L 1.519531 -0.402344 L 0.558594 -0.285156 L 0.558594 0 L 3.351562 0 C 5.457031 0 6.8125 -1.402344 6.8125 -3.546875 C 6.8125 -5.5625 5.445312 -6.863281 3.328125 -6.863281 Z M 1.988281 -0.402344 L 1.988281 -6.460938 L 3.273438 -6.460938 C 5.109375 -6.460938 6.328125 -5.304688 6.328125 -3.546875 C 6.328125 -1.652344 5.160156 -0.402344 3.390625 -0.402344 Z M 1.988281 -0.402344 "/></g></g></g><g fill="#ffffff" fill-opacity="1"><g transform="translate(204.462193, 317.075487)"><g><path d="M 3.820312 0.128906 C 5.769531 0.128906 7.042969 -1.324219 7.042969 -3.546875 C 7.042969 -5.640625 5.769531 -6.992188 3.820312 -6.992188 C 1.859375 -6.992188 0.570312 -5.535156 0.570312 -3.289062 C 0.570312 -1.222656 1.859375 0.128906 3.820312 0.128906 Z M 3.847656 -0.273438 C 2.171875 -0.273438 1.066406 -1.480469 1.066406 -3.300781 C 1.066406 -5.277344 2.132812 -6.589844 3.769531 -6.589844 C 5.445312 -6.589844 6.5625 -5.382812 6.5625 -3.546875 C 6.5625 -1.574219 5.484375 -0.273438 3.847656 -0.273438 Z M 3.847656 -0.273438 "/></g></g></g><g fill="#ffffff" fill-opacity="1"><g transform="translate(211.973837, 317.075487)"><g><path d="M 3.71875 -3.003906 C 5.09375 -3.160156 5.847656 -3.886719 5.847656 -4.925781 C 5.847656 -6.1875 5.070312 -6.863281 3.457031 -6.863281 L 0.429688 -6.863281 L 0.429688 -6.5625 L 1.402344 -6.523438 L 1.402344 -0.429688 L 0.441406 -0.285156 L 0.441406 0 L 3.160156 0 L 3.160156 -0.285156 L 1.871094 -0.324219 L 1.871094 -2.976562 L 3.210938 -2.976562 L 5.238281 0 L 6.746094 0 L 6.746094 -0.285156 L 5.535156 -0.351562 Z M 3.328125 -6.460938 C 4.71875 -6.460938 5.394531 -5.914062 5.394531 -4.914062 C 5.394531 -3.976562 4.601562 -3.367188 3.132812 -3.367188 L 1.871094 -3.367188 L 1.871094 -6.460938 Z M 3.328125 -6.460938 "/></g></g></g><g fill="#ffffff" fill-opacity="1"><g transform="translate(218.731716, 317.075487)"><g/></g></g><g fill="#ffffff" fill-opacity="1"><g transform="translate(221.2269, 317.075487)"><g><path d="M 7.96875 -6.863281 L 7.96875 -6.5625 L 9.164062 -6.539062 L 7.355469 -0.519531 L 5.367188 -6.382812 L 4.964844 -6.210938 L 3.144531 -0.585938 L 1.339844 -6.539062 L 2.535156 -6.5625 L 2.535156 -6.863281 L 0.0664062 -6.863281 L 0.0664062 -6.5625 L 0.84375 -6.460938 L 2.859375 0 L 3.339844 0 L 5.1875 -5.511719 L 7.058594 0 L 7.527344 0 L 9.59375 -6.460938 L 10.398438 -6.5625 L 10.398438 -6.863281 Z M 7.96875 -6.863281 "/></g></g></g><g fill="#ffffff" fill-opacity="1"><g transform="translate(231.584678, 317.075487)"><g><path d="M 5.160156 -0.402344 L 1.921875 -0.402344 L 1.921875 -3.222656 L 4.394531 -3.222656 L 4.535156 -2.25 L 4.808594 -2.25 L 4.808594 -4.601562 L 4.535156 -4.601562 L 4.394531 -3.613281 L 1.921875 -3.613281 L 1.921875 -6.460938 L 4.886719 -6.460938 L 5.03125 -5.394531 L 5.316406 -5.394531 L 5.316406 -6.863281 L 0.429688 -6.863281 L 0.429688 -6.5625 L 1.457031 -6.539062 L 1.457031 -0.402344 L 0.492188 -0.285156 L 0.492188 0 L 5.589844 0 L 5.589844 -1.597656 L 5.289062 -1.597656 Z M 5.160156 -0.402344 "/></g></g></g><g fill="#ffffff" fill-opacity="1"><g transform="translate(237.575785, 317.075487)"><g><path d="M 4.289062 -3.546875 C 5.003906 -3.808594 5.433594 -4.378906 5.433594 -5.132812 C 5.433594 -6.171875 4.640625 -6.863281 3.199219 -6.863281 L 0.429688 -6.863281 L 0.429688 -6.5625 L 1.519531 -6.523438 L 1.519531 -0.402344 L 0.558594 -0.285156 L 0.558594 0 L 3.601562 0 C 5.109375 0 6.003906 -0.765625 6.003906 -1.820312 C 6.003906 -2.730469 5.457031 -3.328125 4.289062 -3.546875 Z M 3.199219 -6.460938 C 4.300781 -6.460938 4.964844 -5.925781 4.964844 -5.054688 C 4.964844 -4.25 4.316406 -3.679688 3.367188 -3.679688 L 1.988281 -3.679688 L 1.988281 -6.460938 Z M 1.988281 -0.402344 L 1.988281 -3.273438 L 3.351562 -3.273438 C 4.835938 -3.273438 5.511719 -2.730469 5.511719 -1.808594 C 5.511719 -0.976562 4.769531 -0.402344 3.46875 -0.402344 Z M 1.988281 -0.402344 "/></g></g></g></svg>